<?xml version="1.0" encoding="utf-8"?>
<!-- Generator: Adobe Illustrator 20.0.0, SVG Export Plug-In . SVG Version: 6.00 Build 0)  -->
<svg version="1.1" id="レイヤー_1" xmlns="http://www.w3.org/2000/svg" xmlns:xlink="http://www.w3.org/1999/xlink" x="0px"
	 y="0px" viewBox="0 0 14 10" style="enable-background:new 0 0 14 10;" xml:space="preserve">
<style type="text/css">
	.st0{fill-rule:evenodd;clip-rule:evenodd;fill:#231815;}
</style>
<g>
	<g>
		<path class="st0" d="M2,0c0,2.7,0,5.3,0,8c4,0,8,0,12,0c0-2.7,0-5.3,0-8C10,0,6,0,2,0z M13,7C9.7,7,6.3,7,3,7c0-2,0-4,0-6
			c3.3,0,6.7,0,10,0C13,3,13,5,13,7z M1,9c0-1.1,0-3.5,0-6C0.2,3,0.7,3,0,3c0,2.3,0,4.4,0,7c3.3,0,6.7,0,10,0c0-0.7,0-0.4,0-1
			C8.2,9,3.1,9,1,9z"/>
	</g>
</g>
</svg>
