<?xml version="1.0" encoding="utf-8"?>
<!-- Generator: Adobe Illustrator 20.0.0, SVG Export Plug-In . SVG Version: 6.00 Build 0)  -->
<svg version="1.1" id="レイヤー_1" xmlns="http://www.w3.org/2000/svg" xmlns:xlink="http://www.w3.org/1999/xlink" x="0px"
	 y="0px" viewBox="0 0 21.6 21.4" style="enable-background:new 0 0 21.6 21.4;" xml:space="preserve">
<path d="M18.5,0H3.1C1.4,0,0,1.4,0,3.1v15.3c0,1.7,1.4,3.1,3.1,3.1h15.4c1.7,0,3.1-1.4,3.1-3.1V3.1C21.6,1.4,20.2,0,18.5,0z
	 M14.7,5.8l-1.4,0c-1.1,0-1.3,0.5-1.3,1.3v1.7h2.6l-0.3,2.6H12v6.8H9.2v-6.8H6.9V8.7h2.3V6.8c0-2.3,1.4-3.5,3.4-3.5
	c1,0,1.8,0.1,2,0.1V5.8L14.7,5.8z"/>
</svg>
