<?xml version="1.0" encoding="utf-8"?>
<!-- Generator: Adobe Illustrator 20.0.0, SVG Export Plug-In . SVG Version: 6.00 Build 0)  -->
<svg version="1.1" id="レイヤー_1" xmlns="http://www.w3.org/2000/svg" xmlns:xlink="http://www.w3.org/1999/xlink" x="0px"
	 y="0px" viewBox="0 0 85 73.3" style="enable-background:new 0 0 85 73.3;" xml:space="preserve">
<style type="text/css">
	.st0{fill:#F2E9D7;}
	.st1{fill:none;stroke:#FFFFFF;stroke-miterlimit:10;}
</style>
<g>
	<g>
		<path class="st0" d="M84.5,32.8c0-17.9-18.8-32.3-42-32.3c-23.2,0-42,14.5-42,32.3c0,17.9,18.8,32.3,42,32.3c2.4,0,4.7-0.2,7-0.5
			c3.5,2.9,7,5.8,8.1,6.7c2.4,2.1,3.9,1.9,3.9-1.3v-8.4C75.1,56.4,84.5,45.4,84.5,32.8z"/>
	</g>
	<g>
		<path class="st1" d="M84.5,32.8c0-17.9-18.8-32.3-42-32.3c-23.2,0-42,14.5-42,32.3c0,17.9,18.8,32.3,42,32.3c2.4,0,4.7-0.2,7-0.5
			c3.5,2.9,7,5.8,8.1,6.7c2.4,2.1,3.9,1.9,3.9-1.3v-8.4C75.1,56.4,84.5,45.4,84.5,32.8z"/>
	</g>
</g>
</svg>
