<?xml version="1.0" encoding="utf-8"?>
<!-- Generator: Adobe Illustrator 20.0.0, SVG Export Plug-In . SVG Version: 6.00 Build 0)  -->
<svg version="1.1" id="レイヤー_1" xmlns="http://www.w3.org/2000/svg" xmlns:xlink="http://www.w3.org/1999/xlink" x="0px"
	 y="0px" viewBox="0 0 34.8 43.9" style="enable-background:new 0 0 34.8 43.9;" xml:space="preserve">
<style type="text/css">
	.st0{fill:#FFFFFF;}
</style>
<path class="st0" d="M3.5,2.3c-3,1.9-3.6,7.9-2.5,12.8c0.9,3.8,2.8,8.9,6,13.7c3,4.5,7.2,8.5,10.4,10.9c4.1,3,10,4.9,13,3
	c1.5-1,3.8-3.6,3.9-4.1c0,0-1.3-2-1.6-2.4l-4.5-6.7c-0.3-0.5-2.4,0-3.5,0.5c-1.4,0.8-2.7,2.9-2.7,2.9c-1,0.5-1.8,0-3.5-0.8
	c-2.1-0.9-4.5-3.9-6.4-6.5c-1.7-2.8-3.5-6.1-3.5-8.3c0-1.8-0.2-2.8,0.7-3.4c0,0,2.5-0.3,3.8-1.3c1-0.7,2.3-2.4,1.9-2.9L10.6,3
	C10.3,2.6,9,0.6,9,0.6C8.5,0.4,5.1,1.4,3.5,2.3z"/>
</svg>
