<?xml version="1.0" encoding="utf-8"?>
<!-- Generator: Adobe Illustrator 20.0.0, SVG Export Plug-In . SVG Version: 6.00 Build 0)  -->
<svg version="1.1" id="レイヤー_1" xmlns="http://www.w3.org/2000/svg" xmlns:xlink="http://www.w3.org/1999/xlink" x="0px"
	 y="0px" viewBox="0 0 16.8 23.2" style="enable-background:new 0 0 16.8 23.2;" xml:space="preserve">
<style type="text/css">
	.st0{fill:#927D44;}
</style>
<g>
	<g>
		<path class="st0" d="M8.1,17.4c-0.5-0.1-0.9-0.5-1.3-0.8c-0.2-0.2-0.4-0.4-0.6-0.4c0,0,0,0-0.1,0c-0.2,0-0.4,0.1-0.6,0.1
			c-0.3,0.1-0.6,0.1-0.9,0.1c-0.3,0-0.6-0.1-0.8-0.2c-0.1,0-0.1-0.1-0.2-0.1L1.4,21l2.8-0.1L6,23.2L8.4,18l0.3-0.6
			c-0.1,0-0.2,0-0.3,0C8.3,17.4,8.2,17.4,8.1,17.4z M12.9,16.2c-0.2,0.1-0.5,0.2-0.8,0.2c0,0,0,0,0,0c-0.3,0-0.6-0.1-0.9-0.1
			c-0.2-0.1-0.5-0.1-0.6-0.1c-0.1,0-0.1,0-0.1,0c-0.1,0-0.4,0.3-0.6,0.4c-0.1,0.1-0.2,0.2-0.3,0.2l-0.9,1.9l2,4.4l1.8-2.2l2.8,0.1
			l-2.3-4.9C13.1,16.1,13,16.2,12.9,16.2z M8.4,3.7c-2.6,0-4.7,2.1-4.7,4.7c0,2.6,2.1,4.7,4.7,4.7s4.7-2.1,4.7-4.7
			C13.1,5.8,11,3.7,8.4,3.7z M15.6,10.3c0.2-0.7,1.2-1.2,1.2-1.9c0-0.7-1.1-1.3-1.2-1.9c-0.2-0.7,0.5-1.7,0.1-2.3
			c-0.3-0.6-1.5-0.6-2-1c-0.5-0.5-0.4-1.7-1-2C12,0.8,11,1.4,10.3,1.2C9.7,1.1,9.1,0,8.4,0C7.7,0,7.1,1.1,6.5,1.2
			C5.8,1.4,4.8,0.8,4.2,1.1c-0.6,0.3-0.6,1.5-1,2c-0.5,0.5-1.7,0.4-2,1C0.8,4.8,1.4,5.8,1.2,6.5C1.1,7.1,0,7.7,0,8.4
			c0,0.7,1.1,1.3,1.2,1.9C1.4,11,0.8,12,1.1,12.6c0.3,0.6,1.5,0.6,2,1c0.2,0.2,0.3,0.6,0.4,1c0.1,0.3,0.2,0.6,0.4,0.8
			c0.1,0.1,0.1,0.2,0.2,0.2c0.6,0.3,1.6-0.3,2.3-0.1c0.4,0.1,0.8,0.6,1.2,0.9c0.2,0.2,0.5,0.3,0.7,0.3c0.3,0,0.5-0.1,0.7-0.3
			c0.4-0.3,0.8-0.8,1.2-0.9c0,0,0,0,0,0c0.7-0.2,1.7,0.5,2.3,0.1c0.1-0.1,0.2-0.1,0.2-0.2c0.4-0.5,0.4-1.4,0.8-1.8
			c0.5-0.5,1.7-0.4,2-1C16,12,15.4,11,15.6,10.3z M8.4,14c-0.1,0-0.2,0-0.3,0c-1.3-0.1-2.6-0.6-3.5-1.5c-1.1-1-1.8-2.5-1.8-4.1
			c0-3.1,2.5-5.6,5.6-5.6c3.1,0,5.6,2.5,5.6,5.6C14,11.5,11.5,14,8.4,14z"/>
	</g>
</g>
</svg>
