<?xml version="1.0" encoding="utf-8"?>
<!-- Generator: Adobe Illustrator 20.0.0, SVG Export Plug-In . SVG Version: 6.00 Build 0)  -->
<svg version="1.1" id="レイヤー_1" xmlns="http://www.w3.org/2000/svg" xmlns:xlink="http://www.w3.org/1999/xlink" x="0px"
	 y="0px" viewBox="0 0 47 47.9" style="enable-background:new 0 0 47 47.9;" xml:space="preserve">
<style type="text/css">
	.st0{fill:#FFFFFF;}
</style>
<g>
	<g>
		<path class="st0" d="M38.6,4.3v8.2H28.1V4.3h-9.3v8.2H8.4V4.3H0.5v43.2h46V4.3H38.6z M41.4,42.9H5.6V16.2h35.9V42.9z M26.8,31.3
			h-6.5v6.5h6.5V31.3z M16.6,31.3h-6.5v6.5h6.5V31.3z M36.9,21.2h-6.5v6.5h6.5V21.2z M36.9,31.3h-6.5v6.5h6.5V31.3z M26.8,21.2h-6.5
			v6.5h6.5V21.2z M16.6,21.2h-6.5v6.5h6.5V21.2z M16.3,0.5H11V10h5.4V0.5z M36.1,0.5h-5.4V10h5.4V0.5z"/>
	</g>
</g>
</svg>
