<?xml version="1.0" encoding="utf-8"?>
<!-- Generator: Adobe Illustrator 20.0.0, SVG Export Plug-In . SVG Version: 6.00 Build 0)  -->
<svg version="1.1" id="レイヤー_1" xmlns="http://www.w3.org/2000/svg" xmlns:xlink="http://www.w3.org/1999/xlink" x="0px"
	 y="0px" viewBox="0 0 21.6 21.4" style="enable-background:new 0 0 21.6 21.4;" xml:space="preserve">
<g>
	<g>
		<path d="M8,10.9c-0.4,0-0.7,0-1.1,0v-0.1c0-0.8,0-1.7,0-2.5c0-0.3-0.2-0.4-0.4-0.4C6.2,7.8,6,8,6,8.2c0,1,0,2,0,3c0,0,0,0,0,0.1
			c0,0.2,0.2,0.4,0.4,0.4c0.5,0,1,0,1.6,0c0.2,0,0.4-0.3,0.4-0.5C8.3,11,8.2,10.9,8,10.9z M13,7.8c-0.2-0.1-0.3,0-0.4,0.1
			c-0.1,0.1-0.1,0.2-0.1,0.4c0,0.6,0,1.1,0,1.7v0.1c0,0,0-0.1-0.1-0.1c-0.3-0.5-0.7-0.9-1-1.4c-0.2-0.2-0.3-0.4-0.5-0.6
			c-0.1-0.1-0.2-0.2-0.4-0.2c-0.2,0-0.3,0.1-0.3,0.3c0,0.1,0,0.2,0,0.2c0,1,0,1.9,0,2.9c0,0.1,0,0.1,0,0.2c0.1,0.2,0.3,0.3,0.4,0.3
			c0.2,0,0.4-0.2,0.4-0.4c0-0.4,0-0.7,0-1.1V9.4c0.5,0.7,1,1.4,1.5,2.1c0.1,0.1,0.2,0.2,0.3,0.2c0.3,0,0.4-0.2,0.4-0.5c0-1,0-2,0-3
			c0,0,0,0,0-0.1C13.2,8,13.1,7.9,13,7.8z M9.3,7.8C9,7.7,8.7,7.9,8.7,8.2c0,1,0,2,0,3c0,0.1,0,0.2,0.1,0.2c0.1,0.2,0.3,0.3,0.4,0.2
			c0.2-0.1,0.3-0.2,0.3-0.4c0-0.5,0-1,0-1.5c0-0.5,0-1,0-1.5C9.6,8,9.5,7.9,9.3,7.8z M14.7,8.6c0.3,0,0.7,0,1,0
			c0.2,0,0.4-0.2,0.4-0.4c0-0.2-0.2-0.4-0.4-0.4c-0.5,0-1,0-1.6,0c-0.2,0-0.4,0.2-0.4,0.4c0,1,0,2.1,0,3.1c0,0.2,0.2,0.4,0.4,0.4
			c0.5,0,1,0,1.6,0c0.2,0,0.4-0.2,0.4-0.4c0-0.2-0.2-0.4-0.4-0.4c-0.3,0-0.7,0-1,0h-0.1v-0.7h0.1c0.3,0,0.7,0,1,0
			c0.2,0,0.4-0.2,0.4-0.4c0-0.3-0.2-0.4-0.4-0.4c-0.3,0-0.7,0-1,0h-0.1V8.6H14.7z M18.5,0H3.1C1.4,0,0,1.4,0,3.1v15.3
			c0,1.7,1.4,3.1,3.1,3.1h15.4c1.7,0,3.1-1.4,3.1-3.1V3.1C21.6,1.4,20.2,0,18.5,0z M17.5,12.9c-0.5,0.6-1,1.2-1.6,1.8
			c-1.3,1.1-2.7,2.1-4.1,3c-0.3,0.2-0.6,0.3-0.9,0.5c-0.1,0-0.2,0.1-0.2,0.1c-0.2,0-0.3-0.1-0.3-0.3c0-0.2,0.1-0.4,0.1-0.7
			c0-0.3,0.1-0.5,0-0.8c0-0.2-0.1-0.3-0.3-0.4c-0.2-0.1-0.4-0.2-0.6-0.2c-0.7-0.1-1.3-0.3-2-0.5C6.8,15,6.1,14.6,5.4,14
			c-1-0.9-1.7-2-2-3.3c-0.1-0.5-0.1-0.9-0.1-1.4c0.1-1.2,0.5-2.2,1.2-3.1c0.8-1,1.7-1.7,2.8-2.1c1-0.4,2-0.7,3.1-0.7
			c1.7-0.1,3.3,0.2,4.7,1C16.4,5,17.3,5.8,18,7c0.5,0.8,0.7,1.7,0.7,2.4C18.7,10.9,18.3,11.9,17.5,12.9z"/>
	</g>
</g>
</svg>
