<?xml version="1.0" encoding="utf-8"?>
<!-- Generator: Adobe Illustrator 20.0.0, SVG Export Plug-In . SVG Version: 6.00 Build 0)  -->
<svg version="1.1" id="レイヤー_1" xmlns="http://www.w3.org/2000/svg" xmlns:xlink="http://www.w3.org/1999/xlink" x="0px"
	 y="0px" viewBox="0 0 35.8 35.8" style="enable-background:new 0 0 35.8 35.8;" xml:space="preserve">
<style type="text/css">
	.st0{fill-rule:evenodd;clip-rule:evenodd;fill:#D1312F;}
</style>
<g>
	<path class="st0" d="M17.9,0C8,0,0,8,0,17.9s8,17.9,17.9,17.9c9.9,0,17.9-8,17.9-17.9S27.8,0,17.9,0z M20.3,18.9h-3.9v6.3
		c0,1.4,0.9,1.9,1.8,1.9H19v0.8H12v-0.8h0.8c1.1,0,1.8-0.7,1.8-1.9V11.7c0-1.2-0.7-1.9-1.8-1.9H12V8.9h7.5c1.8,0,7.1,0.3,7.1,4.9
		C26.6,16.9,24.3,18.9,20.3,18.9z"/>
	<path class="st0" d="M20.2,9.8h-2c-1.1,0-1.8,0.7-1.8,1.9v6.4h3.9c3.4,0,4.3-2.2,4.3-4.1C24.6,10.9,22.2,9.8,20.2,9.8z"/>
</g>
</svg>
