<?xml version="1.0" encoding="utf-8"?>
<!-- Generator: Adobe Illustrator 20.0.0, SVG Export Plug-In . SVG Version: 6.00 Build 0)  -->
<svg version="1.1" id="レイヤー_1" xmlns="http://www.w3.org/2000/svg" xmlns:xlink="http://www.w3.org/1999/xlink" x="0px"
	 y="0px" viewBox="0 0 32.1 42.5" style="enable-background:new 0 0 32.1 42.5;" xml:space="preserve">
<style type="text/css">
	.st0{fill:#333333;}
</style>
<g>
	<g>
		<path class="st0" d="M10.5,9.2V0.5l-10,10h8.7C10.1,10.5,10.5,10.2,10.5,9.2z M15.7,21.1c0.2-0.1,0.4-1.3,0.7-3.1
			c0.4-1.8-0.1-2.9-1-2.7c-1,0.1-1.2,1.2-1.1,2.4c0.1,1.1,0.7,2.4,1,3.1C15.4,20.8,15.6,21.3,15.7,21.1z M11.3,30.3
			c-0.3,0.1-2.4,0.7-3.6,1.9c-1.2,1.2-1.1,2.2-0.6,2.6c0.5,0.4,2.1-0.7,3.1-1.9c1-1.1,1.6-2.3,1.6-2.5
			C11.7,30.3,11.6,30.2,11.3,30.3z M14.7,28.4c0.9-0.4,4.2-1.1,4.2-1.1s-2.1-2.5-2.4-3.1C16.5,24.2,15.2,27.6,14.7,28.4z M30.4,0
			h-18v10.4c0,1.1-0.9,2.1-2.1,2.1H0v28.3c0,0.9,0.8,1.7,1.7,1.7h28.7c0.9,0,1.7-0.8,1.7-1.7V1.7C32.1,0.8,31.4,0,30.4,0z
			 M24.9,31.6c-1.6-0.2-3.6-1.9-5.2-3.3c0,0-0.1,0-0.1,0c-0.3,0-3.2,0.9-5.5,1.5c-3.3,5.9-6.6,7.6-8.2,5.6c-0.8-1-0.5-3.5,3.4-5.3
			c0.8-0.4,1.9-0.8,3.2-1.2c1.1-2,2.2-4.7,2.8-6.3c-1-1.9-1.8-3.9-1.9-4.9C13.2,15.8,14,14,15.6,14c2.1,0,3.6,2,1.2,9.1
			c0.8,1.3,1.8,2.8,3,4c2.1-0.4,4.1-0.5,5-0.5c2.9,0.2,3.6,1.6,3.6,2.6C28.5,30.2,27.2,31.9,24.9,31.6z M24.6,27.6
			c-1.1-0.1-4,0.3-3.6,0.5c0,0,2.3,1.6,3.7,1.8c1.4,0.2,1.9-0.4,1.9-1C26.5,28.2,26,27.6,24.6,27.6z"/>
	</g>
</g>
</svg>
