<?xml version="1.0" encoding="utf-8"?>
<!-- Generator: Adobe Illustrator 20.0.0, SVG Export Plug-In . SVG Version: 6.00 Build 0)  -->
<svg version="1.1" id="_x32_" xmlns="http://www.w3.org/2000/svg" xmlns:xlink="http://www.w3.org/1999/xlink" x="0px" y="0px"
	 viewBox="0 0 368 512" style="enable-background:new 0 0 368 512;" xml:space="preserve">
<style type="text/css">
	.st0{fill:#927D44;}
</style>
<g>
	<path class="st0" d="M322.7,0H45.4C20.3,0,0,20.3,0,45.3v421.3c0,25,20.3,45.3,45.4,45.3h277.3c25,0,45.3-20.3,45.3-45.3V45.3
		C368,20.3,347.7,0,322.7,0z M344,466.7c0,11.8-9.6,21.3-21.3,21.3H45.4c-11.8,0-21.4-9.6-21.4-21.3V45.3C24,33.6,33.6,24,45.4,24
		h277.3c11.8,0,21.3,9.6,21.3,21.3V466.7z"/>
	<rect x="56" y="392" class="st0" width="64" height="56"/>
	<rect x="56" y="304" class="st0" width="64" height="56"/>
	<rect x="56" y="216" class="st0" width="64" height="56"/>
	<rect x="152" y="392" class="st0" width="64" height="56"/>
	<rect x="152" y="304" class="st0" width="64" height="56"/>
	<rect x="152" y="216" class="st0" width="64" height="56"/>
	<rect x="248" y="304" class="st0" width="64" height="144"/>
	<rect x="248" y="216" class="st0" width="64" height="56"/>
	<rect x="56" y="72" class="st0" width="256" height="88"/>
</g>
</svg>
