<?xml version="1.0" encoding="utf-8"?>
<!-- Generator: Adobe Illustrator 20.0.0, SVG Export Plug-In . SVG Version: 6.00 Build 0)  -->
<svg version="1.1" id="レイヤー_1" xmlns="http://www.w3.org/2000/svg" xmlns:xlink="http://www.w3.org/1999/xlink" x="0px"
	 y="0px" viewBox="0 0 10.5 21" style="enable-background:new 0 0 10.5 21;" xml:space="preserve">
<style type="text/css">
	.st0{fill:#231815;}
</style>
<g>
	<g>
		<path class="st0" d="M2,0.2c0,0-1.2,0.4-1.8,4.5c0,0-0.3,2.5-0.1,6.6c0,0,0,0.3,0.2,0.4c0,0,0.5,0.1,0.6,0.9c0,0,0,0,0,0
			c-0.1,0.1-0.2,0.3-0.2,0.4c0,0.1,0,0.2,0.1,0.4c0,0.1,0.1,0.1,0.1,0.2l-0.2,7.2c0,0,0,0,0,0c0,0.1,0.4,0.3,1,0.3
			c0.5,0,1-0.1,1-0.3c0,0,0,0,0,0c0,0,0,0,0,0l-0.4-7.2c0.1-0.1,0.2-0.3,0.2-0.5c0-0.2-0.1-0.3-0.2-0.5c0,0,0,0,0-0.1
			c0,0,0-0.3,0.4-0.8l0-2.9c0-1-0.1-1.6,0-3.6c0.1-1.9,0.4-3.8,0.4-3.8S3.3,0.6,3,0.2C3,0.2,2.8-0.2,2,0.2z M10.2,10
			c0,0,0.3-0.3,0.2-0.7c0,0,0-2-0.1-3.6l-0.1-1.8l0-0.1l0-0.7c0-0.1,0-0.3-0.1-0.4c0-0.1-0.1-0.2-0.1-0.2c0,0,0,0,0,0
			c-0.1,0-0.1,0.2-0.1,0.2c0,0.1,0,0.3,0,0.4c0,0.1,0,0.7,0,0.9l0,3.4l0,0.4c0,0.1-0.1,0.2-0.2,0.2c-0.1,0-0.2-0.1-0.2-0.2
			c0-0.3,0-0.5,0-0.7L9.3,3.6c0-0.1,0-0.2,0-0.4c0-0.1,0-0.2,0-0.3c0-0.1,0-0.3-0.1-0.4c0-0.1,0-0.1-0.1-0.2c0,0,0,0,0,0
			C9.1,2.3,9,2.5,9,2.6C9,2.7,9,3,9,3.1l0,0.6l0,3.6c0,0,0,0.2,0,0.4c0,0.1-0.1,0.2-0.2,0.2c-0.1,0-0.2-0.1-0.2-0.2
			c0-0.2,0-1.3,0-1.5l0-0.9c0-0.1,0-2.3,0-2.3c0-0.1,0-0.3-0.1-0.4c0-0.1,0-0.1-0.1-0.2c0,0,0,0,0,0c-0.1,0-0.1,0.2-0.1,0.2
			c0,0.1,0,0.2,0,0.4c0,0.1,0,0.5,0,0.6L8,7.2c0,0.1,0,0.2,0,0.3c0,0.1,0,0.2,0,0.3c0,0.1-0.1,0.2-0.2,0.2c-0.1,0-0.2-0.1-0.2-0.2
			c0-0.1,0-0.2,0-0.4L7.5,3.7l0-0.9h0c0-0.3-0.1-0.5-0.2-0.5c-0.1,0-0.2,0.3-0.2,0.6v0L7.1,4.1l-0.2,5c0,0-0.1,0.4,0.4,0.8l0.6,0.6
			c0,0,0.4,0.3,0.4,0.9c0,0.6-0.2,4.6-0.2,4.6s-0.3,4.6-0.3,4.6c0,0.1,0.4,0.3,0.9,0.3c0.5,0,0.9-0.1,0.9-0.3c0,0,0,0,0,0l-0.1-4.7
			l-0.3-4.5c0,0,0-0.6,0.4-1L10.2,10z"/>
	</g>
</g>
</svg>
