<?xml version="1.0" encoding="utf-8"?>
<!-- Generator: Adobe Illustrator 20.0.0, SVG Export Plug-In . SVG Version: 6.00 Build 0)  -->
<svg version="1.1" id="レイヤー_1" xmlns="http://www.w3.org/2000/svg" xmlns:xlink="http://www.w3.org/1999/xlink" x="0px"
	 y="0px" viewBox="0 0 15.5 14" style="enable-background:new 0 0 15.5 14;" xml:space="preserve">
<style type="text/css">
	.st0{fill:#927D44;}
</style>
<g>
	<g>
		<path class="st0" d="M3.6,3.2V2.2c0-0.4,0.3-0.7,0.7-0.7h2.4c0.4,0,0.7,0.3,0.7,0.7v0.9c0,0.1,0,0.2-0.1,0.3h0.7
			C8.1,3.4,8,3.3,8,3.2V2.2c0-0.4,0.3-0.7,0.7-0.7h2.4c0.4,0,0.7,0.3,0.7,0.7v0.9c0,0.1,0,0.2-0.1,0.3h1.6V1c0-0.5-0.4-1-1-1H3.1
			c-0.5,0-1,0.4-1,1v2.6h1.6C3.7,3.4,3.6,3.3,3.6,3.2z M13.4,4H2.1l-2,5.1h15.3L13.4,4z M0,9.4v1.6c0,0.6,0.5,1,1,1h13.5
			c0.6,0,1-0.5,1-1V9.4H0z M2.1,14H4l0.2-1.4H2L2.1,14z M11.6,14h1.8l0.2-1.4h-2.2L11.6,14z"/>
	</g>
</g>
</svg>
