<?xml version="1.0" encoding="utf-8"?>
<!-- Generator: Adobe Illustrator 20.0.0, SVG Export Plug-In . SVG Version: 6.00 Build 0)  -->
<svg version="1.1" id="レイヤー_1" xmlns="http://www.w3.org/2000/svg" xmlns:xlink="http://www.w3.org/1999/xlink" x="0px"
	 y="0px" viewBox="0 0 21.6 21.4" style="enable-background:new 0 0 21.6 21.4;" xml:space="preserve">
<g>
	<g>
		<path d="M7.6,9C7.2,8.8,6.8,8.7,6.3,8.7c-0.8,0-1.4,0.3-2,0.7c-0.6,0.5-1,1.3-1,2.2c0,1.6,1.3,2.9,2.9,2.9c1.6,0,2.9-1.3,2.9-2.9
			C9.3,10.5,8.6,9.5,7.6,9z M6.3,13.4c-1,0-1.8-0.8-1.8-1.8c0-1,0.8-1.8,1.8-1.8c1,0,1.8,0.8,1.8,1.8C8.1,12.6,7.3,13.4,6.3,13.4z
			 M15.8,7.6c0,0-1.8-1.8-4.7-1.8S6.3,7.6,6.3,7.6c1,0,2,0.5,2.8,1.4c1.1,1.1,1.9,2.8,1.9,4.5c0-1.7,0.8-3.3,1.9-4.5
			C13.8,8.1,14.8,7.6,15.8,7.6z M6.3,10.5c-0.7,0-1.2,0.5-1.2,1.2c0,0.6,0.5,1.2,1.2,1.2c0.7,0,1.2-0.5,1.2-1.2
			C7.5,11,7,10.5,6.3,10.5z M6.3,12.2c-0.3,0-0.6-0.3-0.6-0.6c0-0.3,0.3-0.6,0.6-0.6c0.3,0,0.6,0.3,0.6,0.6
			C6.9,12,6.7,12.2,6.3,12.2z M15.8,10.5c-0.7,0-1.2,0.5-1.2,1.2c0,0.6,0.5,1.2,1.2,1.2s1.2-0.5,1.2-1.2
			C16.9,11,16.4,10.5,15.8,10.5z M15.8,12.2c-0.3,0-0.6-0.3-0.6-0.6c0-0.3,0.3-0.6,0.6-0.6s0.6,0.3,0.6,0.6
			C16.4,12,16.1,12.2,15.8,12.2z M18.5,0H3.1C1.4,0,0,1.4,0,3.1v15.3c0,1.7,1.4,3.1,3.1,3.1h15.4c1.7,0,3.1-1.4,3.1-3.1V3.1
			C21.6,1.4,20.2,0,18.5,0z M19.4,9.9c0.3,0.6,0.5,1.2,0.5,1.7c0,2.4-1.7,4.1-4.1,4.1c-1.4,0-2.7-0.8-3.5-1.8L11,15.7L9.9,14
			c-0.8,1-2.2,1.8-3.5,1.8c-2.4,0-4.1-1.7-4.1-4.1c0-0.6,0.2-1.2,0.5-1.8C2.9,9.4,3.2,9,3.4,8.7C2.2,8.4,2.2,7.6,2.2,7.6h2.9
			C6.9,5.8,8.7,5.2,11,5.2c2.4,0,4.1,0.6,5.9,2.3h2.9c0,0,0,0.9-1.2,1.2C18.9,9,19.2,9.5,19.4,9.9z M15.8,8.7
			c-0.5,0-0.9,0.1-1.3,0.3c-1,0.5-1.6,1.5-1.6,2.6c0,1.6,1.3,2.9,2.9,2.9c1.6,0,2.9-1.3,2.9-2.9c0-0.8-0.3-1.6-0.9-2.1
			C17.3,9,16.6,8.7,15.8,8.7z M15.8,13.4c-1,0-1.8-0.8-1.8-1.8c0-1,0.8-1.8,1.8-1.8c1,0,1.8,0.8,1.8,1.8
			C17.5,12.6,16.7,13.4,15.8,13.4z"/>
	</g>
</g>
</svg>
