<?xml version="1.0" encoding="utf-8"?>
<!-- Generator: Adobe Illustrator 20.0.0, SVG Export Plug-In . SVG Version: 6.00 Build 0)  -->
<svg version="1.1" id="レイヤー_1" xmlns="http://www.w3.org/2000/svg" xmlns:xlink="http://www.w3.org/1999/xlink" x="0px"
	 y="0px" viewBox="0 0 273.4 222.2" style="enable-background:new 0 0 273.4 222.2;" xml:space="preserve">
<path d="M187,0c22.1-0.4,31.1,8.5,43.2,17.8c14.2-1.8,24.4-8.9,35.5-13.4c0,0.1,0,0.2,0,0.2c-4.3,11.5-13,25.8-24,30.2
	c0,0.1,0,0.2,0,0.2c12.2-0.2,22.2-5.5,31.7-8.6c-6.7,10.7-17,22.8-28.1,29c2.6,25-4.2,48-11,65.3c-18.8,47.6-52.7,80.9-103.9,96
	c-36.5,10.8-80,4.5-109-8.2c-6.9-3-16.4-6.3-21.4-11.5c30.1,4.3,55.6-5.5,73.2-16.6c3.2-2,6.9-3.8,9.4-6.5
	c-28.1-1-44-17.8-52.1-39.1c7.1,1.1,19.1,2.2,25-1c-20.3-4.1-33.9-17.4-40.8-35C13.3,95.5,9,83.3,11,78.3c3.5,2.1,18.9,9,25,6.7
	c-0.2,0-0.3,0-0.5,0c-3.4-3-6.9-6.1-10.3-9.1c-9.6-12-18.6-32-11.5-53c1.4-4.2,2.5-9.4,5.3-12.2c0.3,0.2,0.6,0.5,1,0.7
	c3,6.2,15.5,16.7,21.1,21.1c22.6,17.7,53.8,36.4,93.4,36.5c0-0.2,0-0.5,0-0.7c-1.6-4.6-1.9-12.1-1-17.5c3.8-23,14.8-38.1,33.4-46.1
	c4.4-1.3,8.8-2.6,13.2-3.8C182.3,0.5,184.6,0.3,187,0z"/>
</svg>
