<?xml version="1.0" encoding="utf-8"?>
<!-- Generator: Adobe Illustrator 20.0.0, SVG Export Plug-In . SVG Version: 6.00 Build 0)  -->
<svg version="1.1" id="レイヤー_1" xmlns="http://www.w3.org/2000/svg" xmlns:xlink="http://www.w3.org/1999/xlink" x="0px"
	 y="0px" viewBox="0 0 32.1 42.5" style="enable-background:new 0 0 32.1 42.5;" xml:space="preserve">
<style type="text/css">
	.st0{fill:#221815;}
</style>
<g>
	<path class="st0" d="M10.5,9.2V0.5l-10,10h8.7C10.1,10.5,10.5,10.2,10.5,9.2z"/>
	<path class="st0" d="M22.4,23.3c-1.7,0-2,1.5-2,3s0.3,3,2,3s2-1.5,2-3S24.1,23.3,22.4,23.3z"/>
	<path class="st0" d="M30.4,0h-18v10.4c0,1.1-0.9,2.1-2.1,2.1H0v28.3c0,0.9,0.8,1.7,1.7,1.7h28.7c0.9,0,1.7-0.8,1.7-1.7V1.7
		C32.1,0.8,31.4,0,30.4,0z M12.3,23.3l-4.4,5.9h4.4v1H6.6v-1l4.4-5.9H6.8v-1h5.5V23.3z M16.1,30.2h-1.2v-7.9h1.2V30.2z M16.1,20.1
		h-1.3v-1.3h1.3V20.1z M24.6,29.6c-0.4,0.4-1.1,0.7-1.9,0.7c-0.9,0-1.6-0.2-2.2-1v4.4h-1.2V22.3h1.2v0.9c0.6-0.8,1.4-1,2.2-1
		c0.8,0,1.5,0.3,1.9,0.7c0.8,0.8,1,2.1,1,3.3S25.4,28.8,24.6,29.6z"/>
</g>
</svg>
